<svg width="512" height="512" viewBox="0 0 512 512" fill="none" xmlns="http://www.w3.org/2000/svg">
<g id="Type=Flat">
<g id="Group">
<path id="Vector" d="M361.387 199.41L361.425 200.015L362.673 199.902C362.635 199.524 362.786 198.919 363.051 198.162L362.938 197.066C362.408 197.104 361.879 197.898 361.387 199.41ZM349.438 170.672L349.325 169.575L347.547 169.726L347.661 170.823L349.438 170.672ZM314.763 235.598C314.687 234.577 311.511 230.607 305.234 223.611C305.12 222.326 307.276 220.397 311.7 217.864L324.33 206.86C327.166 203.267 328.829 197.444 329.321 189.352L329.17 187.499C328.678 181.902 324.632 177.403 316.956 173.962C312.418 170.899 304.25 169.197 292.453 168.894C282.697 169.726 269.953 173.205 254.261 179.369C249.95 182.47 245.034 185.57 239.513 188.671L239.589 189.617C239.929 189.579 240.458 189.39 241.064 188.974C241.706 188.898 242.085 189.201 242.122 189.806L243.068 189.314L243.521 189.276L243.559 189.692C243.597 190.184 240.194 192.868 233.312 197.671L233.841 198.654L233.387 198.692L232.253 198.276C232.291 198.616 231.799 198.843 230.854 198.919L230.892 199.335L231.988 200.696C231.648 200.734 231.119 200.583 230.4 200.318C228.812 200.469 227.261 201.301 225.711 202.889L226.354 200.091C228.661 190.146 230.249 181.335 231.081 173.697L230.967 173.205C229.379 172.184 227.829 170.747 226.392 168.932C226.43 167.76 226.43 167.079 226.392 166.928L226.278 166.512L225.825 166.626C220.833 174.113 211.228 186.894 196.973 204.969C186.12 217.826 180.523 224.972 180.183 226.409C175.759 230.985 173.641 233.745 173.868 234.691C172.696 235.447 172.204 236.203 172.394 237.035C172.053 237.111 171.826 236.997 171.751 236.657C169.86 239.72 167.062 241.686 163.318 242.556L159.385 243.463C158.856 243.577 158.591 243.955 158.629 244.598L158.743 245.089L160.217 244.749L160.331 245.165L157.003 246.451L151.104 247.812L148.004 248.001C147.55 248.455 150.461 247.963 149.327 248.228L145.47 249.136C143.126 249.665 141.84 249.476 141.613 248.531L141.159 248.644C141.235 249.06 141.273 249.362 141.197 249.627L140.97 248.682L137.869 249.4C137.643 247.963 133.445 242.745 125.315 233.745C125.164 232.006 128.038 229.472 133.899 226.183L150.461 211.624C154.167 206.86 156.36 199.221 157.079 188.709L156.852 186.251C156.209 178.84 150.84 172.865 140.743 168.252C134.769 164.206 124.03 162.05 108.526 161.71C95.669 162.806 78.88 167.382 58.233 175.361C52.561 179.482 46.095 183.566 38.835 187.612L38.948 188.898C39.44 188.86 40.083 188.596 40.877 188.142C41.709 188.066 42.163 188.444 42.238 189.201L43.524 188.482L44.167 188.444L44.204 189.049C44.242 189.654 39.742 193.171 30.629 199.599L31.348 200.734L30.705 200.772L29.306 200.28C29.344 200.658 28.701 200.923 27.377 201.036L27.453 201.717L28.965 203.381C28.474 203.419 27.793 203.267 26.924 202.965C23.974 203.229 21.1 205.347 18.264 209.355L18.983 210.49C21.441 208.221 22.877 207.087 23.293 207.049L23.445 208.902C23.029 208.939 22.386 209.204 21.516 209.658L23.067 212.002C26.054 208.788 29.344 206.028 32.936 203.721C34.713 204.175 35.659 204.742 35.696 205.347L37.058 205.234C46.814 198.011 56.456 192.793 66.023 189.579L66.137 190.864C64.359 193.511 63.149 194.873 62.506 194.948C62.582 195.856 62.885 196.65 63.452 197.331C63.603 198.957 59.254 209.923 50.444 230.191C30.44 277.307 13.651 312.171 0 334.708C0.038 335.162 0.303 335.767 0.794 336.523C4.16 335.729 6.277 334.898 7.185 334.103L7.903 334.028L8.017 335.313L9.264 335.2L10.55 334.482C10.588 334.86 11.004 335.049 11.874 334.973L11.987 336.259C12.1 337.507 11.382 339.397 9.869 342.006C8.508 343.557 7.033 346.809 5.483 351.763L5.521 352.367L6.769 352.254C12.214 346.166 16.336 340.191 19.172 334.368C35.054 329.717 47.154 325.141 55.549 320.642C63.981 319.923 70.409 317.692 74.796 314.024L74.72 313.344L71.544 314.289L70.825 314.365L70.75 313.684C76.951 312.739 81.224 311.377 83.607 309.487C95.669 300.184 104.782 293.605 110.946 289.71C123.614 280.408 131.857 271.332 135.601 262.522C136.281 262.37 136.962 262.219 137.718 262.03C139.495 261.955 140.479 261.917 140.743 261.841C140.668 261.501 140.819 261.312 141.159 261.236C143.995 260.934 142.634 261.425 144.449 261.009L149.214 259.913L150.008 259.723L149.63 259.95C150.159 260.026 150.726 259.988 151.369 259.837L151.709 261.236L130.042 295.684L125.24 301.697L122.895 309.562L123.349 309.449L125.693 308.466L124.937 311.529L125.164 312.436L125.807 313.23C125.504 313.306 125.391 313.495 125.466 313.835L125.58 314.327L126.563 314.1C128 312.852 128.605 311.718 128.378 310.697C129.928 310.961 130.949 311.075 131.479 310.924L131.592 311.415C130.647 311.642 130.155 312.398 130.08 313.684L130.193 314.175L130.723 314.062C138.588 305.478 157.873 276.097 173.339 256.169C172.847 254.014 180.902 251.026 197.54 247.169L198.069 247.056C198.674 249.665 197.389 255.98 194.212 266.001C192.17 272.051 191.187 275.378 191.338 275.908C188.691 283.962 187.443 288.311 187.595 288.991L181.696 308.314C177.876 318.222 174.965 328.62 172.923 339.586C173.263 339.511 173.793 339.549 174.549 339.738L175.381 339.019C175.456 339.36 175.683 339.473 176.024 339.397L175.683 337.998L178.255 337.923C179.011 337.734 179.654 336.788 180.183 335.049C180.07 332.44 180.599 331.041 181.771 330.738C183.359 324.537 184.343 321.436 184.683 321.322C186.158 315.159 187.254 311.642 187.973 310.772C190.204 302.756 191.83 298.634 192.889 298.369L193.116 299.352L191.49 303.55C188.653 316.142 185.78 326.087 182.868 333.385L183.7 337.015L184.229 336.902C191.263 321.776 201.397 291.827 214.594 247.056C214.972 243.123 216.863 240.06 220.228 237.905L219.472 237.111L219.358 236.695C220.871 236.354 221.93 235.75 222.535 234.918C222.459 234.577 221.136 234.086 218.564 233.405L225.144 205.196C226.581 203.91 227.413 203.23 227.677 203.23L227.791 204.666C227.451 204.704 226.921 204.893 226.316 205.309L227.564 207.087C229.833 204.629 232.291 202.511 234.975 200.734C236.337 201.112 237.017 201.566 237.093 202.019L238.076 201.944C245.563 196.461 252.899 192.528 260.122 190.146L260.197 191.091C258.874 193.095 257.966 194.116 257.475 194.154C257.55 194.835 257.739 195.44 258.08 195.969C258.193 197.217 254.941 205.536 248.286 220.964C233.085 256.698 220.341 283.13 209.98 300.298C210.018 300.638 210.245 301.092 210.661 301.697C213.195 301.092 214.821 300.449 215.464 299.844L215.917 299.806L215.993 300.751L217.052 300.676L217.997 300.184C218.035 300.449 218.375 300.562 219.018 300.525L219.094 301.546C219.169 302.453 218.64 303.89 217.468 305.856C216.371 307.029 215.237 309.487 214.027 313.23L214.064 313.722L215.048 313.646C219.169 309.033 222.308 304.495 224.463 300.033C236.526 296.479 245.715 293.037 252.067 289.634C258.534 289.067 263.411 287.403 266.739 284.605L266.701 284.113L264.243 284.832L263.714 284.87L263.676 284.378C268.365 283.697 271.655 282.639 273.432 281.24C282.583 274.206 289.503 269.177 294.192 266.227C308.788 255.602 315.595 245.392 314.763 235.598ZM312.267 236.241L312.607 240.06C312.154 241.006 311.662 241.497 311.208 241.535L310.641 235.031C311.7 235.409 312.229 235.787 312.267 236.241ZM25.94 205.461L25.298 205.498L25.184 204.326L27.793 204.099L27.831 204.704C27.415 204.742 26.772 204.969 25.94 205.461ZM13.197 332.931C11.685 332.25 10.323 331.986 9.151 332.099L9 330.246C8.924 329.528 9.34 329.036 10.248 328.847C11.079 328.772 11.571 329.377 11.647 330.587C13.84 327.902 15.05 326.541 15.277 326.503L16.676 327.07C16.222 330.851 15.05 332.78 13.197 332.931ZM149.365 190.486C148.722 190.562 147.436 188.558 145.584 184.587L145.47 183.415C146.68 183.302 147.928 185.268 149.251 189.314L149.365 190.486ZM147.55 176.382L147.02 177.63L128.529 169.915C140.857 170.331 147.21 172.487 147.55 176.382ZM69.464 243.426L66.855 243.653L66.742 242.48L69.351 242.253L69.464 243.426ZM67.346 203.154L67.989 203.116L68.141 204.969C67.536 205.007 66.742 205.914 65.758 207.654L65.645 206.368C66.817 204.969 67.422 203.91 67.346 203.154ZM61.863 216.086L62.09 218.544L61.448 218.582L61.221 216.124L61.863 216.086ZM58.99 220.7L60.238 220.586C60.124 222.628 59.557 223.725 58.536 223.8L57.893 223.838C58.687 222.477 59.065 221.418 58.99 220.7ZM56.834 227.128L57.553 227.052L57.59 227.657L56.418 229.624L55.17 229.737L55.133 229.132C56.381 229.019 56.948 228.376 56.834 227.128ZM54.717 232.914L54.339 236.014L53.696 236.052L53.431 232.989L54.717 232.914ZM33.503 293.227C32.671 297.462 31.764 299.617 30.818 299.693L30.781 299.088C30.554 297.008 31.461 295.042 33.503 293.227ZM29.608 301.659L29.646 302.264C29.722 303.096 29.344 303.588 28.512 303.625L28.474 303.02C28.398 302.302 28.776 301.848 29.608 301.659ZM28.474 319.167L30.44 318.978L30.516 319.659C30.024 319.696 29.381 319.961 28.587 320.415L27.339 320.528C27.264 319.885 27.68 319.394 28.474 319.167ZM84.438 301.886C73.397 307.331 66.893 311.037 64.964 312.965C53.015 317.125 47.078 319.696 47.192 320.717C36.566 324.915 29.57 328.015 26.205 329.944C25.411 330.019 24.277 329.717 22.764 329.036C22.575 326.881 23.558 325.141 25.638 323.742C27.491 323.591 29.268 323.856 30.97 324.574C32.936 323.553 36.377 322.419 41.255 321.209L41.142 319.923L37.209 320.263C37.7 319.583 41.482 317.806 48.591 314.932L50.557 314.743L50.595 315.348C47.23 315.65 45.377 316.633 44.961 318.411C45.036 319.205 45.49 319.545 46.322 319.469C48.856 317.881 50.103 316.936 50.066 316.671C54.868 315.764 68.141 308.806 89.884 295.836L89.997 297.008C90.035 297.575 88.182 299.163 84.438 301.886ZM51.087 312.852C54.263 312.587 56.986 311.302 59.254 309.071C60.162 308.995 60.654 309.335 60.691 310.129C59.141 310.281 56.154 311.566 51.805 314.062L51.162 314.1L51.087 312.852ZM104.896 271.521L88.22 284.756C75.817 292.886 69.162 296.97 68.178 297.046C48.44 307.898 36.15 313.533 31.386 313.949L30.667 314.024C31.272 311.793 40.045 293.832 57.061 260.026C64.548 259.383 76.346 255.904 92.417 249.552L96.35 249.211C104.48 248.493 110.568 250.081 114.576 253.862L114.803 256.32C111.816 264.98 108.488 270.047 104.896 271.521ZM72.3 253.182L74.985 252.955L75.023 253.56L72.338 253.787L72.3 253.182ZM110.001 246.791L111.967 246.602C113.782 247.472 114.727 248.228 114.803 248.909L114.841 249.514C113.101 249.665 111.475 248.757 110.001 246.791ZM115.332 216.427C113.593 218.506 108.828 222.061 101.039 227.052C98.467 227.279 88.9 230.985 72.338 238.245C71.506 237.867 70.636 237.716 69.691 237.791L69.578 236.619C69.389 234.237 70.447 231.25 72.792 227.62C74.077 220.813 75.477 216.918 77.027 215.973L90.829 184.928C90.678 182.999 93.627 181.524 99.677 180.503L101.644 180.314L101.795 182.092C107.732 181.184 111.437 180.655 112.874 180.541C123.841 179.596 129.55 181.827 130.004 187.159L131.252 187.045L130.987 183.907L132.349 183.793C135.563 185.57 137.302 187.726 137.529 190.259C137.68 191.999 136.735 194.154 134.731 196.726C133.899 196.801 133.407 196.196 133.332 194.986L131.97 195.1L131.668 198.881C126.109 207.2 122.063 211.473 119.568 211.7C117.299 214.838 115.9 216.389 115.332 216.427ZM123.803 238.17C122.668 237.413 121.761 237.073 121.08 237.111L120.929 235.258L122.177 235.144L124.937 236.771C125.051 237.64 124.672 238.094 123.803 238.17ZM132.576 248.568C133.786 249.06 134.504 249.589 134.655 250.081L134.05 250.232L134.088 250.27C133.975 250.27 133.823 250.308 133.71 250.346L132.802 251.064L132.576 248.568ZM133.407 253.787L133.294 253.295L134.882 252.917L134.996 253.409L133.407 253.787ZM137.227 258.06C138.853 257.795 139.647 257.682 142.672 257.001L142.785 257.492L137.038 258.816C137.113 258.551 137.189 258.287 137.227 258.06ZM142.823 260.442C140.403 260.669 140.932 260.366 137.075 261.236L136.962 260.744L141.802 259.194L144.109 258.665L144.336 259.572C143.277 259.799 144.033 259.799 142.823 260.442ZM147.928 259.232C147.361 259.383 146.907 259.119 146.642 258.476L148.117 258.135C148.76 257.984 149.176 258.249 149.327 258.892L147.928 259.232ZM161.768 244.333L161.654 243.842L164.037 243.274L164.264 244.182L161.768 244.333ZM176.553 335.011C176.704 334.33 176.742 333.839 176.666 333.498L177.196 333.385C177.839 333.234 178.217 333.461 178.368 334.066L178.482 334.557L176.553 335.011ZM186.914 248.228L185.855 248.039C184.154 248.72 182.717 249.211 181.544 249.476L180.561 249.703C179.994 249.854 179.54 249.627 179.313 249.022L186.233 247.434L188.502 246.375L189.259 247.245C188.162 247.472 187.368 247.812 186.914 248.228ZM192.246 246.526L192.132 246.035C192.473 245.959 192.926 245.695 193.418 245.203L198.334 244.068L198.447 244.56C195.838 245.203 193.758 245.846 192.246 246.526ZM193.002 236.581C192.662 236.657 192.208 236.959 191.641 237.413C191.565 237.073 190.885 237.073 189.599 237.375C189.372 236.43 193.002 235.107 200.527 233.367L201.586 233.14L201.813 234.048C196.519 235.598 193.569 236.468 193.002 236.581ZM206.237 222.288C205.708 228.3 203.59 231.703 199.846 232.573L199.733 232.082L196.405 233.367L194.931 233.708C194.174 233.897 193.494 233.859 192.889 233.67L192.586 232.346C192.473 231.855 197.275 225.199 207.031 212.418L208.165 212.607C208.581 214.347 207.939 217.561 206.237 222.288ZM229.644 202.246L229.19 202.284L229.114 201.339L231.081 201.15L231.118 201.641C230.778 201.717 230.287 201.906 229.644 202.246ZM220.001 299.088C218.867 298.558 217.846 298.331 216.976 298.407L216.863 296.97C216.825 296.479 217.127 296.138 217.77 295.949C218.413 295.874 218.791 296.327 218.867 297.31C220.493 295.231 221.4 294.172 221.589 294.172L222.61 294.588C222.232 297.462 221.363 298.974 220.001 299.088ZM323.384 190.94C322.893 190.978 321.947 189.465 320.473 186.402L320.397 185.457C321.342 185.381 322.326 186.856 323.309 189.881L323.384 190.94ZM322.023 180.125L321.569 181.108L307.578 175.247C316.918 175.55 321.758 177.176 322.023 180.125ZM262.693 231.061L260.727 231.25L260.651 230.304L262.617 230.115L262.693 231.061ZM261.067 200.469L261.596 200.431L261.71 201.868C261.218 201.906 260.613 202.587 259.895 203.91L259.819 202.965C260.689 201.868 261.105 201.036 261.067 200.469ZM256.945 210.301L257.097 212.154L256.567 212.192L256.416 210.339L256.945 210.301ZM254.714 213.817L255.697 213.742C255.584 215.33 255.168 216.162 254.45 216.237L253.92 216.275C254.487 215.217 254.752 214.385 254.714 213.817ZM253.126 218.658L253.58 218.62L253.618 219.111L252.748 220.624L251.765 220.7L251.727 220.208C252.748 220.132 253.202 219.603 253.126 218.658ZM251.538 223.044L251.198 225.464L250.744 225.502L250.555 223.12L251.538 223.044ZM235.391 268.912C234.749 272.089 234.068 273.715 233.349 273.79L233.312 273.374C233.198 271.786 233.879 270.273 235.391 268.912ZM232.404 275.303L232.442 275.719C232.518 276.399 232.215 276.777 231.534 276.815L231.497 276.324C231.459 275.832 231.761 275.492 232.404 275.303ZM231.572 288.613L233.085 288.5L233.122 288.991C232.782 289.029 232.253 289.218 231.648 289.559L230.665 289.634C230.627 289.105 230.929 288.765 231.572 288.613ZM274.037 275.492C265.718 279.614 260.764 282.412 259.214 283.849C250.139 287.025 245.639 288.991 245.715 289.785C237.66 293 232.366 295.306 229.871 296.781C229.266 296.819 228.396 296.592 227.261 296.063C227.11 294.437 227.866 293.113 229.455 292.13C230.892 292.017 232.253 292.206 233.501 292.735C235.013 291.979 237.622 291.147 241.328 290.201L241.253 289.256L238.19 289.521C238.568 288.991 241.479 287.63 246.887 285.437L248.399 285.323L248.437 285.739C245.866 285.966 244.429 286.723 244.126 288.084C244.164 288.689 244.542 288.991 245.185 288.916C247.076 287.668 247.983 286.949 247.983 286.723C251.614 286.08 261.672 280.786 278.197 270.879L278.272 271.824C278.272 272.202 276.873 273.412 274.037 275.492ZM248.702 283.811C251.16 283.584 253.24 282.639 254.979 280.975C255.622 280.937 256 281.202 256.038 281.807C254.903 281.92 252.672 282.866 249.307 284.681L248.778 284.718L248.702 283.811ZM289.617 252.388L277.025 262.522C267.609 268.685 262.504 271.786 261.71 271.862C246.736 280.105 237.433 284.378 233.765 284.681L233.236 284.718C233.69 283.017 240.383 269.366 253.315 243.728C258.949 243.237 267.874 240.552 280.125 235.712L283.188 235.447C289.352 234.918 293.965 236.128 296.99 239.039L297.142 240.892C294.835 247.396 292.339 251.215 289.617 252.388ZM264.886 238.472L266.853 238.283L266.89 238.775L264.924 238.964L264.886 238.472ZM293.511 233.594L295.024 233.481C296.423 234.161 297.142 234.766 297.179 235.258L297.217 235.674C295.894 235.787 294.646 235.107 293.511 233.594ZM297.482 210.565C296.158 212.154 292.566 214.876 286.705 218.658C284.739 218.847 277.478 221.645 264.924 227.09C264.319 226.863 263.638 226.788 262.92 226.825L262.844 225.88C262.693 224.065 263.487 221.796 265.227 219.036C266.21 213.817 267.306 210.906 268.441 210.225L278.991 186.629C278.877 185.23 281.108 184.096 285.646 183.226L287.159 183.113L287.272 184.549C291.734 183.831 294.532 183.415 295.667 183.302C303.986 182.583 308.334 184.247 308.675 188.331L309.658 188.255L309.469 185.986L310.452 185.911C312.872 187.234 314.158 188.822 314.309 190.713C314.422 192.074 313.742 193.738 312.305 195.667C311.662 195.742 311.284 195.289 311.208 194.305L310.225 194.381L309.923 197.217C305.725 203.608 302.662 206.897 300.734 207.049C299.032 209.355 297.973 210.528 297.482 210.565ZM301.906 226.296L301.793 224.859L302.776 224.784L304.893 226.069C304.931 226.674 304.629 227.015 303.986 227.09C303.078 226.523 302.398 226.258 301.906 226.296ZM125.882 318.146L124.899 318.373L124.067 319.091C124.219 319.696 124.597 319.923 125.24 319.772C125.882 319.621 126.147 319.243 125.996 318.638L125.882 318.146ZM122.139 310.697L122.252 311.188C122.895 311.037 123.16 310.659 123.009 310.054L122.895 309.562C122.29 309.713 122.025 310.092 122.139 310.697ZM148.911 260.404L149.63 259.95C149.478 259.95 149.365 259.912 149.251 259.875C148.987 259.95 148.873 260.139 148.911 260.404ZM148.76 247.358L149.894 247.094L149.667 246.11L148.533 246.375L148.76 247.358ZM415.991 285.55L413.419 285.248L412.965 286.231L413.003 286.723L428.318 285.437L428.242 284.492L415.991 285.55ZM429.982 284.378L430.057 285.323H430.208L430.133 284.378H429.982ZM494.227 275.983L494.303 276.929L495.967 277.231L495.891 276.286L494.227 275.983ZM491.883 276.172C480.388 278.744 478.951 278.29 476.531 278.479L476.606 279.424L477.665 279.349L478.232 279.311L478.081 279.198L479.329 278.706C490.711 277.458 492.034 277.912 491.921 276.626L491.883 276.172ZM422.873 259.459L421.852 259.119C421.02 261.349 420.604 262.673 420.642 263.051L420.679 263.467C421.474 263.429 422.192 262.068 422.873 259.459ZM409.033 252.01L408.995 251.518L408.466 251.556L407.52 252.161L408.05 253.068C408.768 252.993 409.108 252.652 409.033 252.01ZM439.095 283.092L439.019 282.147L438.717 282.185L438.792 283.13L439.095 283.092ZM501.488 269.026L502.206 268.95C502.622 268.912 502.811 268.572 502.773 267.967L502.357 267.059C499.748 267.286 498.538 267.4 496.421 268.572L496.383 268.08L493.244 268.383C493.169 267.437 492.904 266.946 492.488 266.984L490.862 267.135C488.971 267.286 488.064 267.211 487.118 267.929C487.081 267.589 486.967 267.437 486.778 267.437L484.963 267.589L483.904 268.194C483.866 267.853 483.753 267.702 483.564 267.702L482.921 268.269L482.883 267.778L480.35 267.589L479.745 267.627L479.82 268.572L481.106 268.912L482.316 268.837C482.732 269.101 483.186 269.177 483.715 269.139L484.774 268.61L484.812 269.026C478.875 270.5 478.913 270.236 474.829 270.916C474.375 270.614 474.035 270.463 473.808 270.5L473.732 270.576C473.279 270.538 473.014 270.236 472.976 269.744L475.094 269.479C475.245 269.479 475.358 269.631 476.53 269.858C478.232 269.026 478.308 268.685 479.215 268.61L479.14 267.664C473.316 268.799 475.661 268.042 468.363 268.685L468.022 268.723L467.947 267.778C477.325 266.643 474.186 267.286 477.4 266.379C477.438 266.719 477.552 266.87 477.741 266.87C478.119 266.492 478.535 266.303 479.026 266.227L479.669 266.19C482.959 265.925 484.056 266.568 490.56 264.753L490.597 265.169L491.656 264.639L492.639 264.564C492.564 263.618 494.001 263.467 494.492 263.429L494.417 262.408C482.997 264.715 480.009 264.072 476.833 264.98L476.795 264.564C473.808 265.093 473.695 264.866 472.938 264.904C472.711 264.942 472.371 265.131 471.993 265.509C471.955 265.169 471.842 265.017 471.615 265.017C471.501 265.017 471.464 265.055 471.426 265.055L461.745 266.643C461.708 266.379 461.594 266.227 461.367 266.265C456.338 267.324 457.699 267.513 450.968 268.118C450.666 268.156 450.25 268.307 449.721 268.647C449.683 268.383 449.531 268.232 449.191 268.269L445.069 268.61L442.309 269.29C442.271 269.026 442.12 268.874 441.78 268.912C440.229 269.328 438.868 269.593 437.771 269.668H437.696C437.015 269.744 438.036 269.479 437.507 269.253L436.675 269.744C435.465 269.858 436.108 269.668 431.948 269.706C424.65 270.614 425.444 270.727 424.65 270.765L421.927 270.576C421.965 270.841 421.814 271.03 421.511 271.03C418.411 270.614 416.823 270.122 416.785 269.555C417.201 266.606 417.919 265.093 418.94 265.017L419.47 264.98L419.016 265.963L419.545 265.925C420.528 265.395 420.982 264.904 420.944 264.45L420.869 263.429L419.885 263.505L419.81 262.559C419.734 261.841 419.848 261.198 420.112 260.669L422.343 257.076L422.419 258.022L423.478 257.946L423.402 257.001L422.797 256.131C423.591 255.45 424.196 255.072 424.688 255.034L424.65 254.543L423.213 254.656L423.1 253.219C425.974 247.245 427.335 243.766 427.259 242.783L428.28 243.199C428.923 243.161 429.225 242.783 429.188 242.102L428.204 242.178L428.167 241.762C428.091 241.043 428.242 240.363 428.545 239.758C430.095 238.132 430.814 236.506 430.662 234.804C430.965 234.766 431.116 234.918 431.154 235.258C432.478 234.502 433.499 232.497 434.255 229.17C436.599 224.935 439.927 216.464 444.275 203.797C452.595 181.411 452.254 179.029 453.426 173.735L452.443 173.81C452.519 174.491 452.368 175.134 452.065 175.739C451.384 175.474 450.855 175.323 450.477 175.361L450.439 174.945C450.288 173.016 451.082 170.71 452.897 167.987L453.351 167.949L454.183 171.201L455.166 171.126C455.128 170.899 455.393 169.613 455.922 167.231C455.884 166.739 455.506 166.437 454.75 166.399L453.805 167.004C453.729 166.323 453.767 164.546 453.88 161.71L453.388 161.748C452.557 160.916 452.141 160.235 452.103 159.668L446.695 160.197C446.658 159.819 446.469 159.252 446.09 158.533C446.053 158.042 447.263 157.55 449.758 157.059L450.855 157.475L451.876 156.87C451.914 157.21 452.103 157.361 452.481 157.323L453.502 156.718C453.54 157.059 453.729 157.21 454.107 157.172L454.599 157.134L454.523 156.038C453.767 156.113 451.763 156.113 448.586 156L447.565 156.681L447.527 156.076C422.154 158.155 407.747 159.328 404.306 159.668C403.852 159.706 402.075 159.668 398.937 159.592C398.974 160.008 398.596 160.235 397.84 160.311L396.743 159.819L393.038 160.765C392.168 160.84 390.693 160.802 388.651 160.575C388.084 161.029 387.403 161.294 386.571 161.37C386.118 161.407 391.979 161.067 397.424 160.689C396.857 161.143 395.987 161.407 394.777 161.521C393.945 161.596 393.227 161.483 392.622 161.143C391.79 161.521 389.105 162.126 384.605 163.033L383.509 162.617L365.812 165.34C365.131 165 364.337 164.886 363.429 164.962C362.484 165.037 360.896 165.378 358.703 165.983L350.157 169.537L350.799 170.596C351.215 170.558 351.82 170.331 352.539 169.915L355.564 170.18L355.186 173.016C352.388 174.264 350.762 176.117 350.308 178.461C346.111 180.314 344.031 181.638 344.031 182.432L344.069 182.923L344.711 182.886L345.846 182.281L347.169 183.869L347.358 186.062C347.434 186.743 340.363 201.603 326.22 230.645C313.969 258.627 307.54 273.942 306.935 276.702C302.738 277.874 300.318 279.576 299.599 281.845C299.675 282.563 300.923 283.055 303.343 283.244L303.456 284.34L302.36 286.155L302.549 288.349C302.662 289.483 305.725 290.353 311.738 290.958C311.7 290.58 311.889 290.353 312.305 290.315C312.418 291.676 312.04 294.323 311.17 298.256L311.813 298.218C314.309 294.815 315.481 292.47 315.368 291.185L315.897 291.147C316.502 291.109 317.145 291.79 317.901 293.264C317.145 293.567 314.498 299.579 309.96 311.339L310.603 312.398L311.246 312.36C316.805 298.294 320.284 290.504 321.72 289.029C329.019 288.386 341.648 287.101 359.572 285.172L360.707 284.491C360.744 284.87 360.971 285.059 361.387 285.021L362.56 284.907L363.694 284.227C363.732 284.605 363.959 284.794 364.375 284.756L377.95 283.584C381.542 283.281 383.244 282.185 383.092 280.332C383.055 279.84 385.172 279.273 389.445 278.668C389.861 278.63 390.466 278.744 391.298 279.008C391.26 278.668 393.416 278.328 397.727 277.95C397.84 275.681 398.558 274.471 399.844 274.357L399.731 273.261C398.521 273.374 397.159 273.677 395.571 274.206C392.735 274.055 390.92 273.828 390.164 273.563C389.407 273.979 388.84 274.206 388.424 274.244L378.971 274.546L377.836 275.151C377.798 274.811 377.572 274.66 377.156 274.698L376.626 274.735L375.416 275.341C375.378 275 374.395 274.735 372.429 274.471L371.219 275.189L368.875 275.378L368.837 274.773C381.013 273.45 387.025 271.786 386.874 269.82C387.668 269.744 388.084 270.122 388.159 270.916L391.714 270.009L391.601 268.912L362.446 269.706C362.484 270.084 362.295 270.311 361.879 270.349L358.324 270.047C357.417 270.122 356.661 270.387 356.056 270.841L354.732 270.349C351.064 270.652 348.341 271.105 346.526 271.673C344.031 271.484 341.27 271.521 338.207 271.786L331.666 272.353L328.641 272.013C328.489 270.084 332.233 260.593 339.947 243.577C342.178 237.829 344.22 234.237 346.186 232.876C346.602 232.838 347.207 232.989 348.039 233.329L352.69 231.741L355.072 232.119C359.081 231.779 363.732 230.645 369.064 228.678C370.387 228.565 371.37 228.641 372.089 228.943L375.643 228.111L386.231 227.203C390.731 226.825 395.609 225.842 400.903 224.216L400.789 223.12C398.823 223.309 397.802 222.968 397.727 222.174C397.613 220.7 396.176 220.094 393.416 220.321L393.302 219.225L396.214 218.393L403.852 217.75L403.739 216.654C403.436 216.691 401.886 216.654 399.012 216.54L398.899 215.368L401.848 215.103C402.642 215.028 402.983 214.649 402.907 213.893C398.937 214.006 396.932 213.817 396.895 213.288C369.215 214.649 355.337 214.914 355.262 214.044C354.846 214.082 354.278 214.347 353.522 214.801L352.804 213.666C360.139 198.087 364.45 190.221 365.698 190.108C365.736 190.713 365.433 191.696 364.79 193.02L364.828 193.511L366.001 193.398C368.912 186.44 371.37 182.848 373.412 182.697C382.109 181.94 372.202 181.373 390.807 178.461C391.563 178.802 392.092 178.953 392.47 178.915C399.768 177.44 409.94 175.89 422.986 174.302L422.91 173.205L415.953 173.848L415.877 172.751C416.709 172.676 417.39 172.411 417.957 171.957L417.995 172.562C418.373 172.525 418.902 172.26 419.583 171.806C420.793 171.693 421.7 171.806 422.343 172.146C424.763 171.504 426.73 171.125 428.167 170.974L432.515 170.558C433.574 169.878 434.066 169.273 434.028 168.705L433.99 168.214C432.893 168.327 431.646 168.252 430.171 167.987C430.133 167.382 430.435 166.966 431.154 166.777L439.246 166.021L442.952 165.075C442.99 165.491 443.179 165.642 443.481 165.642C443.859 165.605 444.389 165.34 445.069 164.886C445.259 164.924 445.485 164.924 445.674 164.962C445.183 165.983 444.616 167.458 444.048 169.386L442.99 169.462C442.914 168.743 442.725 168.1 442.385 167.533L441.855 167.571C432.024 194.948 427.637 207.692 418.562 228.716C416.898 234.086 415.499 237.073 414.289 237.716C414.327 238.321 414.705 238.623 415.348 238.548C415.575 241.195 414.97 243.804 413.495 246.375C409.297 258.476 406.499 265.093 405.062 266.303L406.008 272.013C406.045 272.618 405.743 272.958 405.1 273.034L404.117 273.11C403.966 271.521 403.398 270.765 402.378 270.879L401.848 270.916C400.562 272.92 399.579 275.227 398.937 277.912L399.92 277.836C401.243 276.967 401.848 275.946 401.735 274.773L403.701 274.584L404.835 275C403.928 276.437 403.512 277.572 403.588 278.441L404.117 279.349L402.831 282.374L402.869 282.866C404.004 282.752 405.251 283.13 406.575 283.924C407.482 283.849 408.466 283.433 409.562 282.714C410.697 282.601 414.932 282.563 422.23 282.563L425.898 281.315C430.36 281.277 431.078 281.391 434.935 281.05L436.523 280.899L437.355 280.332L437.393 280.824C441.439 280.483 441.704 280.748 444.88 281.126L444.918 281.618L442.687 281.807L442.763 282.752C443.443 282.676 444.048 282.487 444.54 282.071C445.107 282.034 445.447 282.336 445.485 283.017C444.578 283.092 443.557 283.319 442.422 283.697L441.439 283.357C439.889 283.773 440.229 283.886 439.17 283.962L437.62 283.66C437.658 283.924 437.507 284.113 437.242 284.113C437.28 284.718 437.62 285.021 438.187 284.983L439.775 284.832L448.057 284.113L451.195 283.433C451.233 283.697 451.346 283.849 451.611 283.811L453.124 283.244L455.96 283.017C458.153 282.828 458.115 282.676 462.88 281.92C462.842 281.618 462.955 281.504 463.182 281.466L463.22 281.882C470.972 280.559 471.463 280.483 472.711 280.067L472.825 280.294C474.753 279.84 473.657 279.954 474.186 279.576C474.224 279.916 474.337 280.067 474.526 280.067L475.888 279.954L475.812 278.933L473.052 278.895L473.014 278.819C472.9 278.857 472.825 278.857 472.711 278.895H472.333V278.971C470.48 279.349 470.442 279.084 469.232 279.198L462.312 279.576L462.275 279.084L466.132 278.555L467.531 278.441L468.325 277.874L468.363 278.366C473.808 277.912 475.736 279.273 500.92 273.904C502.282 273.79 502.168 272.656 503.038 270.311C502.584 270.349 502.13 270.236 501.715 270.009C499.635 270.803 498.538 270.425 494.53 271.068C494.19 271.106 493.925 270.803 493.811 270.198L493.773 269.782L497.63 269.895C498.349 269.82 499.748 269.706 501.828 268.534C501.828 268.874 501.034 269.063 501.487 269.026H501.488ZM315.292 272.013L313.515 272.164C313.439 271.446 314.385 268.723 316.351 264.072L317.523 263.959C317.561 265.055 316.842 267.74 315.292 272.013ZM317.448 263.391L317.41 262.9C317.372 262.295 317.75 261.879 318.582 261.69L318.62 262.181C318.658 262.9 318.279 263.316 317.448 263.391ZM341.081 281.655L341.119 282.147L338.17 282.412L338.132 281.92L341.081 281.655ZM337.527 281.353C337.565 281.958 336.657 282.639 334.691 283.319L331.06 283.055L329.888 283.168L329.775 282.071L337.527 281.353ZM361.425 171.352L359.648 171.504L359.61 170.899C359.572 170.294 359.913 169.878 360.669 169.689L361.312 169.651L362.522 170.142C362.559 170.861 362.219 171.277 361.425 171.352ZM388.462 166.058L389.029 166.021L389.105 167.117L387.479 167.268C387.441 166.663 387.743 166.248 388.462 166.058ZM381.655 168.441L378.971 168.138L378.933 167.647C382.45 167.344 383.622 166.966 385.777 166.361C385.815 166.777 386.193 166.928 386.874 166.853L386.949 167.949L385.891 168.063C385.059 168.138 384.34 168.025 383.735 167.684C383.092 168.1 382.412 168.365 381.655 168.441ZM385.021 178.235L384.983 177.743L389.332 177.327L389.37 177.819L385.021 178.235ZM389.672 174.453L389.634 173.848L391.752 173.659L391.79 174.264L389.672 174.453ZM390.164 167.042L389.596 167.079L390.088 165.907L394.928 165.453L394.966 166.058C393.718 166.172 392.092 166.512 390.164 167.042ZM392.622 177.478L392.546 176.382L394.664 176.193C395.382 176.117 395.76 176.457 395.798 177.214L392.622 177.478ZM405.44 160.008L402.718 160.765L402.226 160.802C400.941 160.916 399.277 160.878 397.31 160.689C400.827 160.462 404.193 160.197 405.44 160.008ZM402.529 172.109L402.567 172.6L398.823 172.941L398.785 172.449L402.529 172.109ZM408.655 175.02C408.617 174.567 407.898 174.264 406.424 174.113L402.68 175.172L399.806 175.285C399.163 174.831 398.823 174.529 398.785 174.302L402.113 174.491L409.6 173.281L413.419 173.432L413.457 174.037C411.566 174.226 409.978 174.567 408.655 175.02ZM447.187 165.075C447.641 165.113 447.943 165.113 448.057 165.113C449.38 163.827 450.855 162.806 452.557 162.088C451.195 168.063 449.078 172.487 446.166 175.361L444.048 174.075C445.826 169.575 446.885 166.588 447.187 165.075ZM440.683 176.23L441.212 176.193C440.494 177.554 439.851 178.272 439.322 178.31L439.208 176.873C439.549 176.873 440.04 176.646 440.683 176.23ZM436.486 186.251C437.507 182.167 438.49 179.861 439.397 179.256L439.435 179.747C438.906 183.528 438.074 185.533 436.977 185.684L437.166 188.066C436.259 189.352 435.843 190.335 435.88 191.091L435.351 191.129L435.049 187.839C435.654 187.764 436.145 187.234 436.486 186.251ZM434.86 191.696C434.897 192.263 434.519 193.587 433.763 195.629L433.234 195.667L433.12 194.23C433.839 192.566 434.444 191.734 434.859 191.696H434.86ZM404.344 280.256L404.306 279.84L405.289 279.765L405.403 281.202C404.873 281.24 404.495 280.937 404.344 280.256ZM447.943 281.391C447.905 281.05 447.754 280.899 447.414 280.937L444.956 281.164L444.918 280.672H445.145L450.968 280.181L451.006 280.672C449.305 280.748 448.284 281.013 447.943 281.391ZM445.032 280.181C445.259 280.294 445.145 280.408 445.032 280.483C444.918 280.445 444.767 280.332 445.032 280.181ZM445.334 273.374L442.082 273.639L442.044 273.147L444.994 272.883L447.565 272.24C447.603 272.542 447.754 272.656 448.095 272.618C451.158 272.089 450.855 271.937 452.33 271.824C452.821 271.786 453.124 272.089 453.162 272.694L445.334 273.374ZM456.716 272.391C454.901 272.202 454.788 272.051 453.502 272.164L453.464 271.748L456.376 271.484L456.414 271.9C456.111 271.937 457.208 272.013 456.716 272.391ZM456.943 271.862L456.905 271.446L458.493 271.294L458.531 271.71L456.943 271.862ZM460.46 271.559L460.422 271.143C460.687 271.106 461.065 270.916 461.556 270.538C462.35 270.463 462.766 270.992 462.842 271.597L460.46 271.559ZM464.96 270.992L464.922 270.5L466.85 270.349L466.888 270.841L464.96 270.992ZM467.644 270.765C467.607 270.198 467.833 269.858 468.325 269.782L468.968 270.614C468.93 270.349 469.043 270.198 469.27 270.16L469.762 271.068L467.644 270.765ZM504.853 266.379L504.891 266.341V266.303C504.891 266.303 504.853 266.341 504.853 266.379ZM505.534 265.887C505.836 265.698 505.988 265.509 505.269 265.396C504.929 265.774 505.647 265.887 504.891 265.925L504.929 266.265C505.004 266.19 505.194 266.076 505.345 265.963L504.929 266.303V266.341L504.135 267.362L505.723 266.795H505.912L505.836 265.849L505.534 265.887ZM508.294 268.043L507.992 268.08L508.067 269.026L510.298 268.837C510.261 268.232 508.786 268.043 508.294 268.043Z" fill="#F9DC3E"/>
</g>
</g>
</svg>
