<svg width="378" height="361" viewBox="0 0 378 361" fill="none" xmlns="http://www.w3.org/2000/svg">
<path d="M189 0C293.382 0 378 84.6182 378 189C378 293.382 284.981 428.257 189 321.375C93.0194 214.494 0 293.382 0 189C0 84.6182 84.6182 0 189 0Z" fill="#AEB8FE"/>
<path d="M189 19.9491C281.829 19.9491 357.082 95.2022 357.082 188.032C357.082 280.861 280.074 406.432 195.249 301.438C110.425 196.443 20.9175 280.861 20.9175 188.032C20.9175 95.2022 96.1706 19.9491 189 19.9491Z" fill="white"/>
<path d="M90.058 166.353C98.4413 154.528 141.089 122.35 190.388 122.35C239.686 122.35 267.535 145.897 282.74 158.86C297.946 171.822 297.384 200.673 273.168 200.673C248.952 200.673 248.99 166.701 190.388 166.353C136.807 165.989 131.76 203.202 106.678 203.202C81.5953 203.202 81.6747 178.178 90.058 166.353Z" fill="#AEB8FE"/>
</svg>
