<svg width="171" height="169" viewBox="0 0 171 169" fill="none" xmlns="http://www.w3.org/2000/svg">
<path d="M86.5187 8.841C71.6307 8.841 57.0771 13.2558 44.6982 21.5271C32.3193 29.7984 22.6711 41.5548 16.9737 55.3095C11.2763 69.0642 9.7856 84.1995 12.6901 98.8014C15.5946 113.403 22.7638 126.816 33.2912 137.343C43.8186 147.871 57.2314 155.04 71.8333 157.945C86.4352 160.849 101.57 159.358 115.325 153.661C129.08 147.964 140.836 138.315 149.108 125.937C157.379 113.558 161.794 99.004 161.794 84.116C161.771 64.1587 153.833 45.0253 139.721 30.9134C125.609 16.8015 106.476 8.8635 86.5187 8.841ZM86.5187 0C103.155 0 119.418 4.93332 133.251 14.1761C147.084 23.4189 157.865 36.556 164.232 51.9262C170.598 67.2964 172.264 84.2093 169.018 100.526C165.773 116.843 157.762 131.831 145.998 143.595C134.234 155.359 119.246 163.37 102.929 166.616C86.612 169.861 69.6991 168.196 54.3289 161.829C38.9587 155.463 25.8216 144.681 16.5788 130.848C7.33603 117.016 2.40271 100.753 2.40271 84.116C2.40271 61.807 11.2649 40.4118 27.0397 24.637C42.8145 8.8622 64.2098 0 86.5187 0Z" fill="black"/>
<path d="M123.39 41.331C118.552 19.477 103.292 8.54697 84.1077 8.54697C79.8437 8.50563 75.6066 9.22593 71.5957 10.674C67.9363 11.9927 64.5139 13.8939 61.4607 16.304C58.6317 18.5292 56.3255 21.3482 54.7047 24.562C53.1359 27.6648 52.3215 31.0941 52.3277 34.571C52.2775 37.3146 52.788 40.0395 53.8277 42.579C55.2093 45.4146 57.1698 47.9293 59.5827 49.961C63.2242 53.1272 67.1628 55.9345 71.3437 58.344C76.3484 61.344 82.7711 64.9306 90.6117 69.104C98.6171 73.1086 105.415 76.7373 111.007 79.99C116.039 82.8295 120.703 86.2756 124.896 90.251C128.396 93.5845 131.129 97.6405 132.904 102.137C134.691 107.196 135.538 112.539 135.404 117.903C135.404 131.916 130.524 143.219 120.765 151.81C111.005 160.401 97.3681 164.697 79.8527 164.698C63.6707 164.698 48.9067 160.779 38.3137 115.652C38.9327 121.501 44.1279 127.185 46.8137 132.418C49.3417 137.397 52.6817 141.921 56.6967 145.802C60.5314 149.497 64.9758 152.503 69.8337 154.685C74.4671 156.809 79.5008 157.918 84.5977 157.938C89.1019 157.938 93.5773 157.22 97.8557 155.812C101.96 154.516 105.812 152.526 109.245 149.93C112.471 147.458 115.154 144.349 117.127 140.796C119.14 137.161 120.174 133.065 120.127 128.91C120.207 125.368 119.613 121.844 118.375 118.525C116.958 115.25 114.87 112.309 112.245 109.892C108.625 106.534 104.638 103.597 100.359 101.134C95.3541 98.134 89.0151 94.631 81.3417 90.625C66.5031 82.7823 55.6624 75.192 48.8197 67.854C41.9771 60.516 38.5571 52.0913 38.5597 42.58C38.4846 36.9092 39.7265 31.2984 42.1877 26.189C44.6512 21.2118 48.1492 16.8182 52.4477 13.302C57.0837 9.51376 62.3886 6.62794 68.0877 4.79396C74.5556 2.72236 81.3157 1.70931 88.1067 1.79396C102.454 1.79396 114.549 5.46396 123.39 41.331Z" fill="black"/>
<path d="M123.946 124.67C146.138 121.752 158.351 107.496 160.021 88.3842C160.807 80.209 158.775 72.0107 154.264 65.1481C152.293 62.1362 149.685 59.5934 146.625 57.6991C143.67 55.8662 140.325 54.7565 136.861 54.4602C134.132 54.1715 131.373 54.4428 128.752 55.2577C125.807 56.3872 123.132 58.1214 120.898 60.3485C117.427 63.7012 114.287 67.3813 111.524 71.3375C108.1 76.0621 103.968 82.1483 99.1281 89.5961C94.4424 97.2253 90.2357 103.681 86.5078 108.964C83.2422 113.73 79.4043 118.077 75.0802 121.908C71.4547 125.105 67.1763 127.475 62.5424 128.851C57.347 130.192 51.9504 130.571 46.6187 129.97C32.6585 128.751 21.8237 122.906 14.1141 112.436C6.40462 101.966 3.3116 88.0068 4.83506 70.5579C6.24316 54.4372 11.433 40.0703 47.4631 32.285C41.4219 32.4269 45.2505 38.2521 39.8669 40.461C34.6855 42.5464 29.888 45.4809 25.6715 49.1437C21.6562 52.6426 18.2756 56.809 15.6789 61.4589C13.16 65.8899 11.6171 70.8081 11.1536 75.8839C10.7619 80.371 11.0874 84.8918 12.1178 89.2766C13.0519 93.4779 14.6982 97.4883 16.9855 101.134C19.1668 104.564 22.0307 107.507 25.3989 109.782C28.845 112.104 32.8354 113.49 36.9788 113.805C40.4998 114.193 44.0626 113.908 47.4768 112.963C50.8628 111.837 53.9745 110.013 56.6105 107.608C60.2702 104.294 63.544 100.577 66.3696 96.5289C69.7937 91.8043 73.8353 85.7938 78.4946 78.4976C87.5973 64.3902 96.1024 54.2488 104.01 48.0734C111.917 41.8981 120.607 39.2245 130.081 40.0526C135.736 40.4715 141.216 42.1968 146.092 45.0929C150.836 47.9802 154.908 51.8472 158.037 56.4354C161.409 61.3832 163.824 66.9193 165.157 72.7569C166.658 79.3818 167.079 86.2058 166.403 92.965C165.155 107.254 160.446 118.983 123.946 124.67Z" fill="black"/>
</svg>
