<svg width="512" height="512" viewBox="0 0 512 512" fill="none" xmlns="http://www.w3.org/2000/svg">
<path d="M105.092 309.34H0V204.289H105.092L52.5462 256.794L105.092 309.34Z" fill="url(#paint0_linear_334_831)"/>
<path d="M269.144 230.636C276.398 230.636 283.316 232.613 289.246 235.914C295.175 239.194 299.801 244.135 303.06 250.086C306.361 256.352 308.338 263.27 308.338 270.84C308.338 278.409 306.698 285.327 303.397 291.593C300.095 297.523 295.49 302.464 289.561 305.765C283.631 309.403 276.714 311.043 269.144 311.043C261.574 311.043 254.656 309.066 248.727 305.765C242.461 302.464 237.856 297.523 234.555 291.593C231.253 285.664 229.613 278.409 229.613 270.84C229.613 263.27 231.253 256.352 234.555 250.086C237.856 244.156 242.797 239.552 248.727 235.914C254.656 232.276 261.574 230.636 269.144 230.636ZM232.263 203.953L184.49 255.006L232.915 309.34H211.509L165.713 258.602V309.34H148.912V204.289H165.713V252.714L211.173 203.953H232.263ZM268.849 245.733C264.245 245.733 260.291 246.722 256.99 249.035C253.689 251.011 251.061 253.976 249.084 257.929C247.108 261.567 246.119 266.172 246.119 271.113C246.119 276.054 246.771 280.344 248.748 284.297C250.724 287.913 253.353 290.878 256.654 293.191C260.27 295.504 264.245 296.492 268.513 296.492C272.781 296.492 276.735 295.504 280.036 293.191C283.337 291.215 285.965 288.25 287.942 284.297C289.918 280.344 290.907 276.054 290.907 271.113C290.907 266.172 290.255 261.882 288.278 257.929C286.302 254.312 283.673 251.348 280.372 249.035C277.092 246.722 273.139 245.733 268.849 245.733ZM342.296 213.184H326.148V226.368C326.148 228.344 325.811 229.984 324.508 230.973C323.519 231.961 321.879 232.613 319.903 232.613H311.997V246.448H325.832V287.955C325.832 292.245 326.821 296.198 328.461 299.478C330.101 302.779 332.75 305.408 336.03 307.048C339.332 309.024 342.948 309.676 347.553 309.676H360.064V295.189H350.833C348.52 295.189 346.544 294.537 344.904 292.56C343.579 290.92 342.591 288.607 342.591 285.979V246.448H360.379V232.613H342.591V213.184H342.296ZM372.932 200H389.397V309.34H372.932V200ZM408.174 200.336H424.974V217.473H408.174V200.336ZM408.174 232.613H424.638V309.655H408.174V232.613ZM508.661 245.124C506.348 240.519 503.068 236.881 498.778 234.589C494.489 231.961 489.548 230.636 483.954 230.636C478.025 230.636 472.747 232.276 468.142 234.926C464.526 237.239 461.561 240.519 459.248 244.156V232.297H443.436V309.34H459.9V266.172C459.9 261.882 460.552 258.265 462.213 254.964C463.853 251.663 466.166 249.371 468.794 247.395C471.759 245.754 475.06 244.766 479.013 244.766C482.63 244.766 485.279 245.418 487.908 247.079C490.536 248.74 492.197 250.696 493.501 253.345C494.825 255.974 495.477 259.275 495.477 262.891V309.003H511.941V260.915C512.299 255.006 510.995 249.75 508.661 245.124Z" fill="black"/>
<defs>
<linearGradient id="paint0_linear_334_831" x1="105.083" y1="204.32" x2="0.052486" y2="309.351" gradientUnits="userSpaceOnUse">
<stop offset="0.00343514" stop-color="#E44857"/>
<stop offset="0.4689" stop-color="#C711E1"/>
<stop offset="1" stop-color="#7F52FF"/>
</linearGradient>
</defs>
</svg>
