<svg width="552" height="552" viewBox="0 0 552 552" fill="none" xmlns="http://www.w3.org/2000/svg">
<rect x="0.5" y="0.5" width="551" height="551" rx="4.5" stroke="#9747FF" stroke-dasharray="10 5"/>
<path d="M259.234 20.1378C258.133 20.2379 254.629 20.5882 251.476 20.8384C178.755 27.3938 110.639 66.6264 67.4964 126.926C43.4729 160.454 28.1079 198.486 22.3022 238.769C20.2502 252.831 20 256.984 20 276.05C20 295.116 20.2502 299.269 22.3022 313.331C36.2158 409.461 104.633 490.228 197.423 520.153C214.039 525.507 231.557 529.16 251.476 531.362C259.234 532.213 292.766 532.213 300.524 531.362C334.908 527.559 364.036 519.052 392.764 504.39C397.168 502.138 398.019 501.537 397.419 501.037C397.018 500.737 378.25 475.566 355.728 445.14L314.788 389.845L263.488 313.932C235.26 272.197 212.038 238.069 211.837 238.069C211.637 238.019 211.437 271.747 211.337 312.931C211.187 385.041 211.137 387.943 210.236 389.644C208.935 392.096 207.934 393.097 205.831 394.198C204.23 394.999 202.829 395.149 195.271 395.149H186.613L184.31 393.698C182.809 392.747 181.708 391.496 180.957 390.045L179.906 387.793L180.006 287.46L180.156 187.076L181.708 185.125C182.509 184.074 184.21 182.723 185.412 182.072C187.464 181.071 188.264 180.971 196.923 180.971C207.133 180.971 208.834 181.372 211.487 184.274C212.238 185.075 240.015 226.909 273.247 277.301C306.48 327.693 351.924 396.5 374.246 430.278L414.786 491.679L416.838 490.328C435.005 478.518 454.224 461.704 469.439 444.19C501.821 407.009 522.691 361.671 529.698 313.331C531.75 299.269 532 295.116 532 276.05C532 256.984 531.75 252.831 529.698 238.769C515.784 142.639 447.367 61.8724 354.577 31.9476C338.211 26.6432 320.794 22.9901 301.275 20.7883C296.47 20.2879 263.388 19.7374 259.234 20.1378ZM364.036 174.966C366.438 176.167 368.39 178.469 369.091 180.871C369.491 182.172 369.591 209.995 369.491 272.697L369.341 362.672L353.476 338.352L337.56 314.032V248.627C337.56 206.342 337.76 182.573 338.061 181.422C338.861 178.619 340.613 176.417 343.015 175.116C345.067 174.066 345.818 173.965 353.676 173.965C361.083 173.965 362.384 174.066 364.036 174.966Z" fill="black"/>
</svg>
